<svg width="24" height="24" viewBox="0 0 24 24" fill="none" xmlns="http://www.w3.org/2000/svg"><g clip-path="url(#clip0_7554_30741)"><mask id="mask0_7554_30741" maskUnits="userSpaceOnUse" x="0" y="0" width="24" height="24" style="mask-type: luminance;"><path d="M0 0H24V24H0V0Z" fill="white"></path></mask><g mask="url(#mask0_7554_30741)"><path d="M8.90924 7.64903L11.065 3.3544C11.3142 2.85925 11.9172 2.66052 12.4089 2.90978C12.6009 3.00746 12.7559 3.16577 12.8536 3.36113L14.8914 7.50419C15.0565 7.84439 15.3832 8.07344 15.7571 8.11723L20.018 8.62921C20.5974 8.69995 21.0117 9.22878 20.9443 9.8115C20.914 10.0507 20.8062 10.273 20.6344 10.4414L17.2627 13.7659C17.1246 13.9007 17.0606 14.0893 17.0842 14.2813L17.6467 18.7679C17.7275 19.4113 17.2728 19.9974 16.6328 20.0782C16.3903 20.1085 16.1478 20.0647 15.9322 19.9468L12.3719 17.9999C12.1125 17.8585 11.8026 17.8551 11.5433 17.9898L7.85158 19.8828C7.33286 20.1489 6.69961 19.9401 6.43351 19.418C6.33246 19.2226 6.29878 19.0037 6.3291 18.7881L6.62214 16.7267C6.76698 15.7196 7.39012 14.8438 8.29284 14.3823L12.3887 12.2906C12.4965 12.2367 12.5403 12.102 12.4864 11.9908C12.4426 11.9066 12.3517 11.8561 12.2574 11.8696L7.24528 12.5904C6.48067 12.6982 5.70595 12.4826 5.10302 11.9908L3.43569 10.63C2.96076 10.2426 2.88329 9.5353 3.27064 9.05699C3.45254 8.83468 3.7119 8.68984 3.99484 8.65279L8.27262 8.10375C8.54546 8.0667 8.78461 7.89828 8.90924 7.64903Z" fill="url(#paint0_linear_7554_30741)"></path><path d="M12.7021 4.11897C12.2676 4.02129 11.8061 4.23013 11.5973 4.6478L9.43816 8.94243C9.31353 9.19169 9.07775 9.36011 8.80154 9.39716L4.52376 9.94956C4.24755 9.98662 3.99493 10.1214 3.81641 10.3336L5.39952 11.627C5.89804 12.0346 6.54476 12.2131 7.18137 12.1221L12.1901 11.4047C12.4865 11.3643 12.7762 11.5125 12.9075 11.7786C13.0793 12.1188 12.9446 12.5364 12.6044 12.7116L11.2975 13.3785L12.7863 13.163C12.8806 13.1495 12.9749 13.2 13.0153 13.2842C13.0726 13.3954 13.0254 13.5301 12.9177 13.584L8.82175 15.6757C7.91904 16.1372 7.2959 17.013 7.15106 18.0201L6.95906 19.3573C7.13422 19.5325 7.41042 19.5796 7.63947 19.4618L11.3244 17.5687C11.7253 17.3633 12.2002 17.37 12.5943 17.5856L16.1546 19.5325C16.2826 19.6032 16.4308 19.6302 16.5757 19.6133C16.9529 19.5662 17.2258 19.2159 17.1786 18.8285L16.6195 14.3385C16.579 14.0017 16.6936 13.6682 16.9327 13.4324L20.3044 10.1079C20.3617 10.0506 20.4055 9.98325 20.4358 9.90915L16.286 9.41063C15.9121 9.36684 15.5887 9.13443 15.4203 8.79759L15.2586 8.46413C14.9184 8.31592 14.6389 8.05319 14.4705 7.71299L12.7021 4.11897Z" fill="url(#paint1_linear_7554_30741)"></path><path d="M12.6211 2.48869C11.8936 2.12154 11.0111 2.41459 10.6473 3.14215L8.48819 7.44015C8.4343 7.54793 8.32988 7.62204 8.21199 7.63551L3.9342 8.18792C3.53 8.23844 3.15948 8.44728 2.90349 8.7639C2.35445 9.44431 2.45887 10.4413 3.1359 10.9937L4.8066 12.3579C5.51058 12.9305 6.41666 13.1832 7.31264 13.0552L10.8528 12.5465L8.07725 13.9646C7.03644 14.4968 6.32235 15.5006 6.1573 16.6593L5.86089 18.7207C5.8171 19.034 5.86763 19.3506 6.01246 19.6335C6.39309 20.3847 7.31601 20.6844 8.06715 20.3005L11.7555 18.4075C11.8767 18.3435 12.0216 18.3468 12.1428 18.4142L15.7032 20.3577C16.0029 20.5228 16.3499 20.5901 16.6901 20.5463C17.5894 20.4318 18.2227 19.6066 18.1115 18.7106L17.5524 14.2206C17.5456 14.1768 17.5625 14.1297 17.5928 14.0993L20.9645 10.7748C21.2104 10.5289 21.3687 10.2089 21.4091 9.86535C21.5068 9.02663 20.914 8.26539 20.0753 8.16434L15.811 7.65235C15.5988 7.62877 15.4101 7.49404 15.3124 7.29868L13.278 3.15225C13.1365 2.86595 12.9041 2.63353 12.6211 2.48869ZM11.486 3.56319C11.6174 3.30046 11.9374 3.19604 12.1967 3.32741C12.2978 3.37793 12.382 3.46551 12.4325 3.56993L14.4704 7.71298C14.7061 8.19465 15.1676 8.52138 15.6998 8.58538L19.9641 9.09737C20.2841 9.13442 20.5132 9.42747 20.4761 9.75419C20.4593 9.88893 20.3986 10.0136 20.3043 10.1079L16.9326 13.4324C16.6935 13.6682 16.5789 14.0017 16.6194 14.3385L17.1785 18.8285C17.2257 19.2159 16.9528 19.5662 16.5756 19.6133C16.4307 19.6302 16.2825 19.6032 16.1545 19.5325L12.5942 17.5856C12.2001 17.37 11.7252 17.3666 11.3243 17.5721L7.636 19.4651C7.34969 19.6099 6.99939 19.4954 6.85118 19.2057C6.79729 19.098 6.77708 18.9733 6.79392 18.8521L7.08696 16.794C7.20822 15.9385 7.74042 15.1941 8.50503 14.8033L12.6009 12.7116C12.9445 12.5364 13.0792 12.1188 12.9074 11.7786C12.7727 11.5125 12.4864 11.3643 12.19 11.4047L7.17791 12.1221C6.54129 12.2131 5.89794 12.0346 5.39943 11.627L3.7321 10.2628C3.4559 10.0371 3.41211 9.62957 3.63779 9.35336C3.7422 9.22537 3.89041 9.14116 4.05209 9.12095L8.32988 8.56854C8.76103 8.51465 9.13491 8.24855 9.33028 7.86119L11.486 3.56319Z" fill="url(#paint2_linear_7554_30741)"></path></g></g><defs><linearGradient id="paint0_linear_7554_30741" x1="11.9879" y1="2.80199" x2="11.9879" y2="20.0883" gradientUnits="userSpaceOnUse"><stop stop-color="#FFF0C2"></stop><stop offset="1" stop-color="#FFEBBA"></stop></linearGradient><linearGradient id="paint1_linear_7554_30741" x1="12.1261" y1="4.09539" x2="16.8687" y2="19.6167" gradientUnits="userSpaceOnUse"><stop stop-color="#FFD147"></stop><stop offset="1" stop-color="#FFB526"></stop></linearGradient><linearGradient id="paint2_linear_7554_30741" x1="11.9879" y1="2.33038" x2="16.1478" y2="20.5565" gradientUnits="userSpaceOnUse"><stop stop-color="#E58F0D"></stop><stop offset="1" stop-color="#EB7814"></stop></linearGradient><clipPath id="clip0_7554_30741"><rect width="24" height="24" fill="white"></rect></clipPath></defs>
</svg>